<svg width="18" height="18" viewBox="0 0 18 18" fill="none" xmlns="http://www.w3.org/2000/svg">
<path d="M2.40034 0.381462L9.00016 6.98064L15.6 0.401459C15.7299 0.269254 15.8859 0.165449 16.058 0.0966059C16.2301 0.0277633 16.4147 -0.00461832 16.6 0.00150879C16.9635 0.0250346 17.3061 0.180069 17.5637 0.437663C17.8213 0.695258 17.9764 1.0378 17.9999 1.40133C18.0017 1.58008 17.9672 1.75732 17.8985 1.92232C17.8297 2.08732 17.7281 2.23664 17.5999 2.36122L10.9801 9.00039L17.5999 15.6396C17.8599 15.8915 18.0039 16.2395 17.9999 16.5994C17.9764 16.963 17.8213 17.3055 17.5637 17.5631C17.3061 17.8207 16.9635 17.9757 16.6 17.9993C16.4147 18.0054 16.2301 17.973 16.058 17.9042C15.8859 17.8353 15.7299 17.7315 15.6 17.5993L9.00016 11.0201L2.42034 17.5993C2.2904 17.7315 2.13444 17.8353 1.96231 17.9042C1.79019 17.973 1.60565 18.0054 1.42037 17.9993C1.05002 17.98 0.699941 17.8242 0.437709 17.562C0.175478 17.2998 0.0196867 16.9498 0.000409344 16.5794C-0.00140021 16.4007 0.0331205 16.2235 0.101878 16.0585C0.170635 15.8935 0.272195 15.7441 0.400399 15.6196L7.02022 9.00039L0.380399 2.36122C0.255805 2.23496 0.157941 2.08489 0.0926529 1.91996C0.0273647 1.75504 -0.00400799 1.57865 0.000409344 1.40133C0.0239374 1.0378 0.178987 0.695258 0.436606 0.437663C0.694226 0.180069 1.0368 0.0250346 1.40037 0.00150879C1.58421 -0.00722205 1.76788 0.0220088 1.93992 0.0873791C2.11197 0.152749 2.2687 0.252858 2.40034 0.381462Z" fill="#B89A9A"/>
</svg>
