<svg width="37" height="37" viewBox="0 0 37 37" fill="none" xmlns="http://www.w3.org/2000/svg">
<path fill-rule="evenodd" clip-rule="evenodd" d="M20.464 29.7077L18.4999 31.4226L16.5359 29.7077C9.52084 23.5823 5.95825 18.1618 5.95825 13.125C5.95825 5.99674 11.5187 0.583374 18.4999 0.583374C25.4812 0.583374 31.0416 5.99674 31.0416 13.125C31.0416 18.1618 27.479 23.5823 20.464 29.7077ZM7.18653 23.5229C7.92217 24.53 8.74163 25.5545 9.64456 26.5966C6.30808 27.3481 4.16659 28.4146 4.16659 29.2501C4.16659 30.6959 10.5792 32.8334 18.4999 32.8334C26.4206 32.8334 32.8333 30.6959 32.8333 29.2501C32.8333 28.4146 30.6918 27.3481 27.3553 26.5966C28.2582 25.5545 29.0777 24.53 29.8133 23.5229C33.8424 24.7455 36.4166 26.7066 36.4166 29.2501C36.4166 33.7414 28.3904 36.4168 18.4999 36.4168C8.60944 36.4168 0.583252 33.7414 0.583252 29.2501C0.583252 26.7066 3.15741 24.7455 7.18653 23.5229ZM18.4999 4.16671C23.5233 4.16671 27.4583 7.99757 27.4583 13.125C27.4583 16.7925 24.5426 21.3056 18.4999 26.6629C12.4572 21.3056 9.54158 16.7925 9.54158 13.125C9.54158 7.99757 13.4765 4.16671 18.4999 4.16671ZM18.4999 7.75004C21.4684 7.75004 23.8749 10.1565 23.8749 13.125C23.8749 16.0936 21.4684 18.5 18.4999 18.5C15.5314 18.5 13.1249 16.0936 13.1249 13.125C13.1249 10.1565 15.5314 7.75004 18.4999 7.75004ZM16.7083 13.125C16.7083 12.1355 17.5104 11.3334 18.4999 11.3334C19.4894 11.3334 20.2916 12.1355 20.2916 13.125C20.2916 14.1145 19.4894 14.9167 18.4999 14.9167C17.5104 14.9167 16.7083 14.1145 16.7083 13.125Z" fill="#2E363E"/>
</svg>
