              <svg width="26" height="23" viewBox="0 0 26 23" fill="none"
                xmlns="http://www.w3.org/2000/svg">
                <path
                  d="M23.8948 9.48606C24.3345 9.48606 24.71 9.64046 25.0211 9.94925C25.3322 10.258 25.4878 10.6306 25.4878 11.0671C25.4878 11.5035 25.3322 11.8761 25.0211 12.1849C24.71 12.4937 24.3345 12.6481 23.8948 12.6481H23.7081L22.2769 20.8249C22.2106 21.2037 22.028 21.5166 21.7294 21.7636C21.4307 22.0106 21.0905 22.1341 20.7088 22.1341H4.77896C4.39731 22.1341 4.05714 22.0106 3.75846 21.7636C3.45977 21.5166 3.27724 21.2037 3.21087 20.8249L1.77967 12.6481H1.59299C1.15326 12.6481 0.777826 12.4937 0.466696 12.1849C0.155565 11.8761 0 11.5035 0 11.0671C0 10.6306 0.155565 10.258 0.466696 9.94925C0.777826 9.64046 1.15326 9.48606 1.59299 9.48606H23.8948ZM6.03593 19.3674C6.25165 19.3509 6.4321 19.2583 6.5773 19.0895C6.72249 18.9207 6.78679 18.7292 6.7702 18.5151L6.37195 13.3768C6.35536 13.1627 6.26202 12.9836 6.09193 12.8395C5.92185 12.6954 5.72895 12.6316 5.51323 12.6481C5.29751 12.6646 5.11706 12.7572 4.97186 12.926C4.82667 13.0948 4.76237 13.2863 4.77896 13.5003L5.17721 18.6386C5.1938 18.8445 5.27885 19.0174 5.43234 19.1574C5.58583 19.2974 5.76628 19.3674 5.9737 19.3674H6.03593ZM11.1509 18.5769V13.4386C11.1509 13.2245 11.0721 13.0392 10.9145 12.8828C10.7568 12.7263 10.5701 12.6481 10.3544 12.6481C10.1387 12.6481 9.95203 12.7263 9.79439 12.8828C9.63675 13.0392 9.55793 13.2245 9.55793 13.4386V18.5769C9.55793 18.791 9.63675 18.9762 9.79439 19.1327C9.95203 19.2892 10.1387 19.3674 10.3544 19.3674C10.5701 19.3674 10.7568 19.2892 10.9145 19.1327C11.0721 18.9762 11.1509 18.791 11.1509 18.5769ZM15.9299 18.5769V13.4386C15.9299 13.2245 15.8511 13.0392 15.6934 12.8828C15.5358 12.7263 15.3491 12.6481 15.1334 12.6481C14.9177 12.6481 14.731 12.7263 14.5733 12.8828C14.4157 13.0392 14.3369 13.2245 14.3369 13.4386V18.5769C14.3369 18.791 14.4157 18.9762 14.5733 19.1327C14.731 19.2892 14.9177 19.3674 15.1334 19.3674C15.3491 19.3674 15.5358 19.2892 15.6934 19.1327C15.8511 18.9762 15.9299 18.791 15.9299 18.5769ZM20.3106 18.6386L20.7088 13.5003C20.7254 13.2863 20.6611 13.0948 20.5159 12.926C20.3707 12.7572 20.1903 12.6646 19.9746 12.6481C19.7589 12.6316 19.566 12.6954 19.3959 12.8395C19.2258 12.9836 19.1324 13.1627 19.1159 13.3768L18.7176 18.5151C18.701 18.7292 18.7653 18.9207 18.9105 19.0895C19.0557 19.2583 19.2362 19.3509 19.4519 19.3674H19.5141C19.7215 19.3674 19.902 19.2974 20.0555 19.1574C20.209 19.0174 20.294 18.8445 20.3106 18.6386ZM5.92392 3.60668L4.76652 8.69556H3.12375L4.38072 3.24848C4.53836 2.52385 4.90756 1.93303 5.48834 1.47602C6.06912 1.01901 6.73286 0.790505 7.47958 0.790505H9.55793C9.55793 0.57641 9.63675 0.391135 9.79439 0.234681C9.95203 0.0782271 10.1387 0 10.3544 0H15.1334C15.3491 0 15.5358 0.0782271 15.6934 0.234681C15.8511 0.391135 15.9299 0.57641 15.9299 0.790505H18.0082C18.7549 0.790505 19.4187 1.01901 19.9995 1.47602C20.5802 1.93303 20.9494 2.52385 21.1071 3.24848L22.3641 8.69556H20.7213L19.5639 3.60668C19.4726 3.24437 19.2839 2.94793 18.9976 2.71736C18.7114 2.4868 18.3816 2.37152 18.0082 2.37152H15.9299C15.9299 2.58561 15.8511 2.77089 15.6934 2.92734C15.5358 3.08379 15.3491 3.16202 15.1334 3.16202H10.3544C10.1387 3.16202 9.95203 3.08379 9.79439 2.92734C9.63675 2.77089 9.55793 2.58561 9.55793 2.37152H7.47958C7.10622 2.37152 6.77642 2.4868 6.49018 2.71736C6.20394 2.94793 6.01519 3.24437 5.92392 3.60668Z"
                  fill="#AA1565" />
                <path
                  d="M23.8948 9.48606C24.3345 9.48606 24.71 9.64046 25.0211 9.94925C25.3322 10.258 25.4878 10.6306 25.4878 11.0671C25.4878 11.5035 25.3322 11.8761 25.0211 12.1849C24.71 12.4937 24.3345 12.6481 23.8948 12.6481H23.7081L22.2769 20.8249C22.2106 21.2037 22.028 21.5166 21.7294 21.7636C21.4307 22.0106 21.0905 22.1341 20.7088 22.1341H4.77896C4.39731 22.1341 4.05714 22.0106 3.75846 21.7636C3.45977 21.5166 3.27724 21.2037 3.21087 20.8249L1.77967 12.6481H1.59299C1.15326 12.6481 0.777826 12.4937 0.466696 12.1849C0.155565 11.8761 0 11.5035 0 11.0671C0 10.6306 0.155565 10.258 0.466696 9.94925C0.777826 9.64046 1.15326 9.48606 1.59299 9.48606H23.8948ZM6.03593 19.3674C6.25165 19.3509 6.4321 19.2583 6.5773 19.0895C6.72249 18.9207 6.78679 18.7292 6.7702 18.5151L6.37195 13.3768C6.35536 13.1627 6.26202 12.9836 6.09193 12.8395C5.92185 12.6954 5.72895 12.6316 5.51323 12.6481C5.29751 12.6646 5.11706 12.7572 4.97186 12.926C4.82667 13.0948 4.76237 13.2863 4.77896 13.5003L5.17721 18.6386C5.1938 18.8445 5.27885 19.0174 5.43234 19.1574C5.58583 19.2974 5.76628 19.3674 5.9737 19.3674H6.03593ZM11.1509 18.5769V13.4386C11.1509 13.2245 11.0721 13.0392 10.9145 12.8828C10.7568 12.7263 10.5701 12.6481 10.3544 12.6481C10.1387 12.6481 9.95203 12.7263 9.79439 12.8828C9.63675 13.0392 9.55793 13.2245 9.55793 13.4386V18.5769C9.55793 18.791 9.63675 18.9762 9.79439 19.1327C9.95203 19.2892 10.1387 19.3674 10.3544 19.3674C10.5701 19.3674 10.7568 19.2892 10.9145 19.1327C11.0721 18.9762 11.1509 18.791 11.1509 18.5769ZM15.9299 18.5769V13.4386C15.9299 13.2245 15.8511 13.0392 15.6934 12.8828C15.5358 12.7263 15.3491 12.6481 15.1334 12.6481C14.9177 12.6481 14.731 12.7263 14.5733 12.8828C14.4157 13.0392 14.3369 13.2245 14.3369 13.4386V18.5769C14.3369 18.791 14.4157 18.9762 14.5733 19.1327C14.731 19.2892 14.9177 19.3674 15.1334 19.3674C15.3491 19.3674 15.5358 19.2892 15.6934 19.1327C15.8511 18.9762 15.9299 18.791 15.9299 18.5769ZM20.3106 18.6386L20.7088 13.5003C20.7254 13.2863 20.6611 13.0948 20.5159 12.926C20.3707 12.7572 20.1903 12.6646 19.9746 12.6481C19.7589 12.6316 19.566 12.6954 19.3959 12.8395C19.2258 12.9836 19.1324 13.1627 19.1159 13.3768L18.7176 18.5151C18.701 18.7292 18.7653 18.9207 18.9105 19.0895C19.0557 19.2583 19.2362 19.3509 19.4519 19.3674H19.5141C19.7215 19.3674 19.902 19.2974 20.0555 19.1574C20.209 19.0174 20.294 18.8445 20.3106 18.6386ZM5.92392 3.60668L4.76652 8.69556H3.12375L4.38072 3.24848C4.53836 2.52385 4.90756 1.93303 5.48834 1.47602C6.06912 1.01901 6.73286 0.790505 7.47958 0.790505H9.55793C9.55793 0.57641 9.63675 0.391135 9.79439 0.234681C9.95203 0.0782271 10.1387 0 10.3544 0H15.1334C15.3491 0 15.5358 0.0782271 15.6934 0.234681C15.8511 0.391135 15.9299 0.57641 15.9299 0.790505H18.0082C18.7549 0.790505 19.4187 1.01901 19.9995 1.47602C20.5802 1.93303 20.9494 2.52385 21.1071 3.24848L22.3641 8.69556H20.7213L19.5639 3.60668C19.4726 3.24437 19.2839 2.94793 18.9976 2.71736C18.7114 2.4868 18.3816 2.37152 18.0082 2.37152H15.9299C15.9299 2.58561 15.8511 2.77089 15.6934 2.92734C15.5358 3.08379 15.3491 3.16202 15.1334 3.16202H10.3544C10.1387 3.16202 9.95203 3.08379 9.79439 2.92734C9.63675 2.77089 9.55793 2.58561 9.55793 2.37152H7.47958C7.10622 2.37152 6.77642 2.4868 6.49018 2.71736C6.20394 2.94793 6.01519 3.24437 5.92392 3.60668Z"
                  fill="#B89A9A" />
              </svg>