<svg width="72" height="42" viewBox="0 0 72 42" fill="none" xmlns="http://www.w3.org/2000/svg">
<path opacity="0.36" d="M37.0659 21.2646C37.0659 31.2226 28.657 39.4993 18.7068 39.4993C8.4125 39.4993 -4.52354e-07 31.2226 -8.87789e-07 21.261C-1.33802e-06 10.961 8.40892 3.02631 18.7068 3.02631C23.5925 3.04404 28.2711 4.96877 31.7144 8.37747C35.1576 11.7862 37.0838 16.3999 37.0695 21.2046L37.0659 21.2646ZM10.814 21.2646C10.814 25.4804 14.4163 28.6882 18.7104 28.6882C22.9973 28.6882 26.2591 25.4804 26.2591 21.261C26.2591 16.8724 22.9973 13.8339 18.7104 13.8339C14.4127 13.8304 10.814 16.8724 10.814 21.2646ZM52.3425 14.0031L62.4683 3.69958C64.6942 1.67272 67.956 1.67272 70.017 3.69958C72.2429 5.89212 72.2429 9.27257 70.017 10.961L59.7191 21.261L70.017 31.2226C71.0457 32.2343 71.5583 33.5879 71.5583 35.1107C71.5583 36.2916 71.0421 37.6416 70.017 38.826C67.956 40.8529 64.6942 40.8529 62.4647 38.826L52.3389 28.3568C51.2005 32.1376 49.5883 35.7644 47.5394 39.1538C46.1666 41.6883 42.7364 42.1924 40.1592 40.8423C37.5857 39.1538 36.901 36.1153 38.618 33.4116C40.8898 29.7506 42.0917 25.5447 42.0917 21.2557C42.0917 16.9668 40.8898 12.7609 38.6179 9.09985C36.901 6.39619 37.5857 3.19198 40.1592 1.67272C42.7364 0.149923 46.163 0.830248 47.5394 3.19551C49.6004 6.39972 51.1453 10.115 52.3461 13.9996L52.3425 14.0031Z" fill="#F5ECED"/>
</svg>
