<svg width="81" height="48" viewBox="0 0 81 48" fill="none" xmlns="http://www.w3.org/2000/svg">
<path fill-rule="evenodd" clip-rule="evenodd" d="M78.3287 3.8355C78.8832 2.01172 78.3287 0.668945 75.6732 0.668945H66.9051C64.6738 0.668945 63.645 1.82801 63.0872 3.10732C63.0872 3.10732 58.628 13.7827 52.3116 20.7171C50.2673 22.7279 49.3388 23.3659 48.2231 23.3659C47.6653 23.3659 46.8269 22.7279 46.8269 20.9008V3.8355C46.8269 1.6443 46.2123 0.668945 44.3551 0.668945H30.5666C29.1737 0.668945 28.3353 1.68438 28.3353 2.64971C28.3353 4.724 31.4952 5.205 31.8192 11.0437V23.73C31.8192 26.5124 31.3081 27.0168 30.1925 27.0168C27.2197 27.0168 19.988 16.2913 15.6958 4.01921C14.8641 1.63094 14.0223 0.668945 11.781 0.668945H3.00622C0.501037 0.668945 0 1.82801 0 3.10732C0 5.38537 2.97282 16.7021 13.8453 31.6698C21.0936 41.8909 31.2981 47.4324 40.594 47.4324C46.1689 47.4324 46.857 46.2032 46.857 44.0821V36.3561C46.857 33.8944 47.3847 33.4033 49.1517 33.4033C50.4544 33.4033 52.6823 34.0447 57.8864 38.9715C63.8321 44.8136 64.8108 47.4324 68.1577 47.4324H76.9258C79.431 47.4324 80.687 46.2032 79.9655 43.7715C79.1705 41.3531 76.3313 37.8425 72.5668 33.6772C70.5226 31.3057 67.4562 28.7504 66.5243 27.4711C65.225 25.831 65.5957 25.0995 66.5243 23.6398C66.5243 23.6398 77.2131 8.85589 78.3254 3.8355H78.3287Z" fill="#F5ECED"/>
</svg>
