<svg width="81" height="59" viewBox="0 0 81 59" fill="none" xmlns="http://www.w3.org/2000/svg">
<path opacity="0.36" d="M80.5366 29.4241C80.5366 29.2263 80.5366 29.0016 80.5276 28.7409C80.5186 28.0128 80.5006 27.1948 80.4827 26.3229C80.4107 23.8149 80.2849 21.3159 80.0872 18.9608C79.8175 15.7157 79.422 13.01 78.8827 10.9785C78.3136 8.85839 77.198 6.92482 75.6475 5.37104C74.097 3.81726 72.1658 2.69768 70.0471 2.12421C67.5033 1.44104 62.5237 1.01855 55.5127 0.757866C52.178 0.632018 48.6096 0.551116 45.0412 0.506171C43.7918 0.488192 42.6323 0.479204 41.5896 0.470215H38.947C37.9043 0.479204 36.7448 0.488192 35.4954 0.506171C31.927 0.551116 28.3586 0.632018 25.0239 0.757866C18.0129 1.02754 13.0243 1.45003 10.4895 2.12421C8.37006 2.69627 6.43816 3.81537 4.88742 5.36938C3.33669 6.92338 2.22159 8.85769 1.65388 10.9785C1.10558 13.01 0.719077 15.7157 0.449423 18.9608C0.251677 21.3159 0.125838 23.8149 0.0539306 26.3229C0.0269652 27.1948 0.0179768 28.0128 0.00898832 28.7409C0.00898832 29.0016 0 29.2263 0 29.4241V29.9275C0 30.1252 -1.37287e-07 30.35 0.00898832 30.6107C0.0179768 31.3388 0.0359537 32.1568 0.0539306 33.0287C0.125838 35.5367 0.251677 38.0356 0.449423 40.3908C0.719077 43.6359 1.11457 46.3416 1.65388 48.3731C2.8044 52.6789 6.18406 56.0768 10.4895 57.2274C13.0243 57.9105 18.0129 58.333 25.0239 58.5937C28.3586 58.7196 31.927 58.8005 35.4954 58.8454C36.7448 58.8634 37.9043 58.8724 38.947 58.8814H41.5896C42.6323 58.8724 43.7918 58.8634 45.0412 58.8454C48.6096 58.8005 52.178 58.7196 55.5127 58.5937C62.5237 58.324 67.5123 57.9016 70.0471 57.2274C74.3525 56.0768 77.7322 52.6879 78.8827 48.3731C79.431 46.3416 79.8175 43.6359 80.0872 40.3908C80.2849 38.0356 80.4107 35.5367 80.4827 33.0287C80.5096 32.1568 80.5186 31.3388 80.5276 30.6107C80.5276 30.35 80.5366 30.1252 80.5366 29.9275V29.4241ZM74.0649 29.8915C74.0649 30.0803 74.0649 30.287 74.0559 30.5298C74.0469 31.2309 74.0289 32.004 74.011 32.84C73.948 35.231 73.8222 37.6221 73.6334 39.8425C73.3908 42.7369 73.0492 45.1101 72.6267 46.7011C72.0695 48.7776 70.4336 50.4226 68.3662 50.971C66.4786 51.4743 61.7237 51.8788 55.261 52.1216C51.9892 52.2474 48.4658 52.3283 44.9513 52.3733C43.7199 52.3912 42.5783 52.4002 41.5536 52.4002H38.9829L35.5853 52.3733C32.0708 52.3283 28.5563 52.2474 25.2755 52.1216C18.8128 51.8699 14.049 51.4743 12.1704 50.971C10.103 50.4136 8.46713 48.7776 7.90984 46.7011C7.48739 45.1101 7.14582 42.7369 6.90314 39.8425C6.71438 37.6221 6.59753 35.231 6.52562 32.84C6.49866 32.004 6.48967 31.2219 6.48068 30.5298C6.48068 30.287 6.47169 30.0713 6.47169 29.8915V29.46C6.47169 29.2713 6.47169 29.0645 6.48068 28.8218C6.48967 28.1207 6.50764 27.3476 6.52562 26.5116C6.58854 24.1205 6.71438 21.7294 6.90314 19.5091C7.14582 16.6146 7.48739 14.2415 7.90984 12.6504C8.46713 10.574 10.103 8.92895 12.1704 8.38062C14.0579 7.87723 18.8128 7.47272 25.2755 7.23001C28.5473 7.10417 32.0708 7.02326 35.5853 6.97832C36.8167 6.96034 37.9583 6.95135 38.9829 6.95135H41.5536L44.9513 6.97832C48.4658 7.02326 51.9803 7.10417 55.261 7.23001C61.7237 7.48171 66.4876 7.87723 68.3662 8.38062C70.4336 8.93794 72.0695 10.574 72.6267 12.6504C73.0492 14.2415 73.3908 16.6146 73.6334 19.5091C73.8222 21.7294 73.9391 24.1205 74.011 26.5116C74.0379 27.3476 74.0469 28.1297 74.0559 28.8218C74.0559 29.0645 74.0649 29.2803 74.0649 29.46V29.8915ZM32.2686 41.7212L53.1218 29.5859L32.2686 17.6304V41.7212Z" fill="#F5ECED"/>
</svg>
